<svg id="visual" viewBox="0 0 900 600" width="900" height="600" xmlns="http://www.w3.org/2000/svg" xmlns:xlink="http://www.w3.org/1999/xlink" version="1.1"><rect x="0" y="0" width="900" height="600" fill="#FFFFFF"></rect><defs><linearGradient id="grad1_0" x1="33.3%" y1="100%" x2="100%" y2="0%"><stop offset="20%" stop-color="#ffffff" stop-opacity="1"></stop><stop offset="80%" stop-color="#ffffff" stop-opacity="1"></stop></linearGradient></defs><defs><linearGradient id="grad2_0" x1="0%" y1="100%" x2="66.7%" y2="0%"><stop offset="20%" stop-color="#ffffff" stop-opacity="1"></stop><stop offset="80%" stop-color="#ffffff" stop-opacity="1"></stop></linearGradient></defs><g transform="translate(900, 600)"><path d="M-378.6 0C-376.8 -41 -375 -82.1 -360.1 -117C-345.1 -151.9 -317 -180.7 -292.1 -212.2C-267.1 -243.7 -245.3 -277.8 -214 -294.5C-182.6 -311.2 -141.7 -310.4 -104.4 -321.5C-67.2 -332.6 -33.6 -355.6 0 -378.6L0 0Z" fill="#8bccfc"></path></g><g transform="translate(0, 0)"><path d="M378.6 0C347.5 31.3 316.4 62.5 307.2 99.8C298 137.1 310.7 180.4 301 218.7C291.2 257 259.1 290.3 222.5 306.3C186 322.3 145 320.9 107.2 330C69.4 339.2 34.7 358.9 0 378.6L0 0Z" fill="#8bccfc"></path></g></svg>